
<svg xmlns="http://www.w3.org/2000/svg" xmlns:xlink="http://www.w3.org/1999/xlink" viewBox="0 0 20 25" version="1.1" x="0px" y="0px"><title>02 - icon/plus</title><desc>Created with Sketch.</desc><g stroke="nne" stroke-width="1" fill="none" fill-rule="evenodd"><path d="M17,10.5 C17,10.7761424 16.7761424,11 16.5,11 L3.5,11 C3.22385763,11 3,10.7761424 3,10.5 C3,10.2238576 3.22385763,10 3.5,10 L16.5,10 C16.7761424,10 17,10.2238576 17,10.5 Z" fill="white"/><path d="M17,10 C17,10.2761424 16.7761424,10.5 16.5,10.5 L3.5,10.5 C3.22385763,10.5 3,10.2761424 3,10 C3,9.72385763 3.22385763,9.5 3.5,9.5 L16.5,9.5 C16.7761424,9.5 17,9.72385763 17,10 Z" fill="white" transform="translate(10.000000, 10.000000) rotate(90.000000) translate(-10.000000, -10.000000) "/></g><text x="0" y="35" fill="#000000" font-size="5px" font-weight="bold" font-family="'Helvetica Neue', Helvetica, Arial-Unicode, Arial, Sans-serif">Created by Ilaria Niccolini</text><text x="0" y="40" fill="#000000" font-size="5px" font-weight="bold" font-family="'Helvetica Neue', Helvetica, Arial-Unicode, Arial, Sans-serif">from the Noun Project</text></svg>